<svg width="23" height="41" viewBox="0 0 23 41" fill="none" xmlns="http://www.w3.org/2000/svg">
<path d="M19.8281 0.640625H3.17188C2.49253 0.641515 1.84127 0.911778 1.3609 1.39215C0.880528 1.87252 0.610265 2.52378 0.609375 3.20312V37.7969C0.610265 38.4762 0.880528 39.1275 1.3609 39.6079C1.84127 40.0882 2.49253 40.3585 3.17188 40.3594H19.8281C20.5075 40.3585 21.1587 40.0882 21.6391 39.6079C22.1195 39.1275 22.3897 38.4762 22.3906 37.7969V3.20312C22.3897 2.52378 22.1195 1.87252 21.6391 1.39215C21.1587 0.911778 20.5075 0.641515 19.8281 0.640625V0.640625ZM14.4981 1.92188L14.1378 3.20312H8.79736L8.47705 1.92188H14.4981ZM21.1094 37.7969C21.1089 38.1365 20.9738 38.4622 20.7336 38.7024C20.4934 38.9425 20.1678 39.0777 19.8281 39.0781H3.17188C2.8322 39.0777 2.50657 38.9425 2.26639 38.7024C2.0262 38.4622 1.89107 38.1365 1.89062 37.7969V3.20312C1.89107 2.86345 2.0262 2.53782 2.26639 2.29764C2.50657 2.05745 2.8322 1.92232 3.17188 1.92188H7.15576L7.67547 3.9991C7.71011 4.13769 7.79008 4.26073 7.90268 4.34866C8.01527 4.43658 8.15402 4.48435 8.29688 4.48438H14.623C14.7627 4.48437 14.8984 4.43877 15.0097 4.35449C15.1211 4.27022 15.2018 4.15189 15.2396 4.01752L15.829 1.92188H19.8281C20.1678 1.92232 20.4934 2.05745 20.7336 2.29764C20.9738 2.53782 21.1089 2.86345 21.1094 3.20312V37.7969Z" fill="#6E00FA"/>
<path d="M8.29688 36.5156H3.8125C3.6426 36.5156 3.47965 36.5831 3.35951 36.7033C3.23937 36.8234 3.17188 36.9863 3.17188 37.1562C3.17188 37.3262 3.23937 37.4891 3.35951 37.6092C3.47965 37.7294 3.6426 37.7969 3.8125 37.7969H8.29688C8.46678 37.7969 8.62973 37.7294 8.74987 37.6092C8.87001 37.4891 8.9375 37.3262 8.9375 37.1562C8.9375 36.9863 8.87001 36.8234 8.74987 36.7033C8.62973 36.5831 8.46678 36.5156 8.29688 36.5156Z" fill="#6E00FA"/>
<path d="M10.8594 36.5156H10.2188C10.0488 36.5156 9.8859 36.5831 9.76576 36.7033C9.64562 36.8234 9.57812 36.9863 9.57812 37.1562C9.57812 37.3262 9.64562 37.4891 9.76576 37.6092C9.8859 37.7294 10.0488 37.7969 10.2188 37.7969H10.8594C11.0293 37.7969 11.1922 37.7294 11.3124 37.6092C11.4325 37.4891 11.5 37.3262 11.5 37.1562C11.5 36.9863 11.4325 36.8234 11.3124 36.7033C11.1922 36.5831 11.0293 36.5156 10.8594 36.5156Z" fill="#6E00FA"/>
<path d="M13.7515 16.7475C13.6793 16.7043 13.5994 16.6756 13.5162 16.6632C13.4329 16.6508 13.3481 16.655 13.2665 16.6754C13.1849 16.6958 13.1081 16.7321 13.0405 16.7821C12.9729 16.8322 12.9158 16.8951 12.8725 16.9673L9.02877 23.3735C8.94135 23.5192 8.91539 23.6937 8.9566 23.8585C8.99781 24.0234 9.10281 24.1651 9.2485 24.2525C9.39419 24.3399 9.56865 24.3659 9.73348 24.3246C9.89831 24.2834 10.04 24.1784 10.1274 24.0327L13.9712 17.6265C14.0145 17.5543 14.0431 17.4744 14.0555 17.3912C14.0679 17.308 14.0638 17.2231 14.0434 17.1415C14.023 17.0599 13.9867 16.9831 13.9366 16.9155C13.8865 16.8479 13.8236 16.7908 13.7515 16.7475Z" fill="#6E00FA"/>
<path d="M15.844 16.8965C15.7915 16.8308 15.7264 16.7761 15.6527 16.7355C15.579 16.695 15.498 16.6693 15.4144 16.66C15.2455 16.6413 15.0761 16.6904 14.9434 16.7966C14.8107 16.9028 14.7257 17.0574 14.7069 17.2263C14.6882 17.3952 14.7373 17.5646 14.8435 17.6973L17.0857 20.5L14.8435 23.3027C14.7373 23.4354 14.6882 23.6048 14.7069 23.7737C14.7257 23.9426 14.8107 24.0972 14.9434 24.2034C15.0761 24.3096 15.2455 24.3587 15.4144 24.34C15.5833 24.3212 15.7378 24.2362 15.844 24.1035L18.4065 20.9004C18.4975 20.7868 18.5471 20.6456 18.5471 20.5C18.5471 20.3544 18.4975 20.2132 18.4065 20.0996L15.844 16.8965Z" fill="#6E00FA"/>
<path d="M7.15595 24.1035C7.26214 24.2362 7.41668 24.3213 7.58559 24.34C7.75449 24.3587 7.92391 24.3096 8.05659 24.2034C8.18926 24.0972 8.27432 23.9427 8.29304 23.7737C8.31177 23.6048 8.26263 23.4354 8.15644 23.3027L5.91426 20.5L8.15644 17.6973C8.20902 17.6316 8.24815 17.5562 8.27159 17.4754C8.29502 17.3945 8.30232 17.3099 8.29304 17.2263C8.28377 17.1426 8.25812 17.0617 8.21754 16.9879C8.17697 16.9142 8.12228 16.8492 8.05659 16.7966C7.99089 16.7441 7.91549 16.7049 7.83467 16.6815C7.75386 16.658 7.66922 16.6508 7.58559 16.66C7.50195 16.6693 7.42097 16.695 7.34725 16.7355C7.27353 16.7761 7.20853 16.8308 7.15595 16.8965L4.59345 20.0996C4.50248 20.2132 4.45291 20.3545 4.45291 20.5C4.45291 20.6456 4.50248 20.7868 4.59345 20.9004L7.15595 24.1035Z" fill="#6E00FA"/>
</svg>
